# Blender v2.93.5 OBJ File: 'final chees.blend'
# www.blender.org
mtllib board.mtl
o Cube
v -0.500000 0.000000 7.500000
v -0.500000 0.200000 7.500000
v -0.500000 0.000000 -0.500000
v -0.500000 0.200000 -0.500000
v 7.500000 0.000000 7.500000
v 7.500000 0.200000 7.500000
v 7.500000 0.000000 -0.500000
v 7.500000 0.200000 -0.500000
v 0.500000 0.200000 -0.500000
v 1.500000 0.200000 -0.500000
v 2.500000 0.200000 -0.500000
v 3.500000 0.200000 -0.500000
v 4.500000 0.200000 -0.500000
v 5.500000 0.200000 -0.500000
v 6.500000 0.200000 -0.500000
v 6.500000 0.000000 -0.500000
v 5.500000 0.000000 -0.500000
v 4.500000 0.000000 -0.500000
v 3.500000 0.000000 -0.500000
v 2.500000 0.000000 -0.500000
v 1.500000 0.000000 -0.500000
v 0.500000 0.000000 -0.500000
v 6.500000 0.200000 7.500000
v 5.500000 0.200000 7.500000
v 4.500000 0.200000 7.500000
v 3.500000 0.200000 7.500000
v 2.500000 0.200000 7.500000
v 1.500000 0.200000 7.500000
v 0.500000 0.200000 7.500000
v 0.500000 0.000000 7.500000
v 1.500000 0.000000 7.500000
v 2.500000 0.000000 7.500000
v 3.500000 0.000000 7.500000
v 4.500000 0.000000 7.500000
v 5.500000 0.000000 7.500000
v 6.500000 0.000000 7.500000
v -0.500000 0.200000 6.500000
v -0.500000 0.200000 5.500000
v -0.500000 0.200000 4.500000
v -0.500000 0.200000 3.500000
v -0.500000 0.200000 2.500000
v -0.500000 0.200000 1.500000
v -0.500000 0.200000 0.500000
v -0.500000 0.000000 0.500000
v -0.500000 0.000000 1.500000
v -0.500000 0.000000 2.500000
v -0.500000 0.000000 3.500000
v -0.500000 0.000000 4.500000
v -0.500000 0.000000 5.500000
v -0.500000 0.000000 6.500000
v 7.500000 0.200000 0.500000
v 7.500000 0.200000 1.500000
v 7.500000 0.200000 2.500000
v 7.500000 0.200000 3.500000
v 7.500000 0.200000 4.500000
v 7.500000 0.200000 5.500000
v 7.500000 0.200000 6.500000
v 7.500000 0.000000 6.500000
v 7.500000 0.000000 5.500000
v 7.500000 0.000000 4.500000
v 7.500000 0.000000 3.500000
v 7.500000 0.000000 2.500000
v 7.500000 0.000000 1.500000
v 7.500000 0.000000 0.500000
v 6.500000 0.200000 0.500000
v 6.500000 0.200000 1.500000
v 6.500000 0.200000 2.500000
v 6.500000 0.200000 3.500000
v 6.500000 0.200000 4.500000
v 6.500000 0.200000 5.500000
v 6.500000 0.200000 6.500000
v 5.500000 0.200000 0.500000
v 5.500000 0.200000 1.500000
v 5.500000 0.200000 2.500000
v 5.500000 0.200000 3.500000
v 5.500000 0.200000 4.500000
v 5.500000 0.200000 5.500000
v 5.500000 0.200000 6.500000
v 4.500000 0.200000 0.500000
v 4.500000 0.200000 1.500000
v 4.500000 0.200000 2.500000
v 4.500000 0.200000 3.500000
v 4.500000 0.200000 4.500000
v 4.500000 0.200000 5.500000
v 4.500000 0.200000 6.500000
v 3.500000 0.200000 0.500000
v 3.500000 0.200000 1.500000
v 3.500000 0.200000 2.500000
v 3.500000 0.200000 3.500000
v 3.500000 0.200000 4.500000
v 3.500000 0.200000 5.500000
v 3.500000 0.200000 6.500000
v 2.500000 0.200000 0.500000
v 2.500000 0.200000 1.500000
v 2.500000 0.200000 2.500000
v 2.500000 0.200000 3.500000
v 2.500000 0.200000 4.500000
v 2.500000 0.200000 5.500000
v 2.500000 0.200000 6.500000
v 1.500000 0.200000 0.500000
v 1.500000 0.200000 1.500000
v 1.500000 0.200000 2.500000
v 1.500000 0.200000 3.500000
v 1.500000 0.200000 4.500000
v 1.500000 0.200000 5.500000
v 1.500000 0.200000 6.500000
v 0.500000 0.200000 0.500000
v 0.500000 0.200000 1.500000
v 0.500000 0.200000 2.500000
v 0.500000 0.200000 3.500000
v 0.500000 0.200000 4.500000
v 0.500000 0.200000 5.500000
v 0.500000 0.200000 6.500000
v 0.500000 0.000000 0.500000
v 0.500000 0.000000 1.500000
v 0.500000 0.000000 2.500000
v 0.500000 0.000000 3.500000
v 0.500000 0.000000 4.500000
v 0.500000 0.000000 5.500000
v 0.500000 0.000000 6.500000
v 1.500000 0.000000 0.500000
v 1.500000 0.000000 1.500000
v 1.500000 0.000000 2.500000
v 1.500000 0.000000 3.500000
v 1.500000 0.000000 4.500000
v 1.500000 0.000000 5.500000
v 1.500000 0.000000 6.500000
v 2.500000 0.000000 0.500000
v 2.500000 0.000000 1.500000
v 2.500000 0.000000 2.500000
v 2.500000 0.000000 3.500000
v 2.500000 0.000000 4.500000
v 2.500000 0.000000 5.500000
v 2.500000 0.000000 6.500000
v 3.500000 0.000000 0.500000
v 3.500000 0.000000 1.500000
v 3.500000 0.000000 2.500000
v 3.500000 0.000000 3.500000
v 3.500000 0.000000 4.500000
v 3.500000 0.000000 5.500000
v 3.500000 0.000000 6.500000
v 4.500000 0.000000 0.500000
v 4.500000 0.000000 1.500000
v 4.500000 0.000000 2.500000
v 4.500000 0.000000 3.500000
v 4.500000 0.000000 4.500000
v 4.500000 0.000000 5.500000
v 4.500000 0.000000 6.500000
v 5.500000 0.000000 0.500000
v 5.500000 0.000000 1.500000
v 5.500000 0.000000 2.500000
v 5.500000 0.000000 3.500000
v 5.500000 0.000000 4.500000
v 5.500000 0.000000 5.500000
v 5.500000 0.000000 6.500000
v 6.500000 0.000000 0.500000
v 6.500000 0.000000 1.500000
v 6.500000 0.000000 2.500000
v 6.500000 0.000000 3.500000
v 6.500000 0.000000 4.500000
v 6.500000 0.000000 5.500000
v 6.500000 0.000000 6.500000
vt 0.000000 0.000000
vt 0.000000 0.000000
vt 0.000000 0.000000
vt 0.000000 0.000000
vt 0.000000 0.000000
vt 0.000000 0.000000
vt 0.000000 0.000000
vt 0.000000 0.000000
vt 0.000000 0.000000
vt 0.000000 0.000000
vt 0.000000 0.000000
vt 0.000000 0.000000
vt 0.000000 0.000000
vt 0.000000 0.000000
vt 0.000100 0.124954
vt 0.125075 0.000100
vt 0.125075 0.124954
vt 0.000100 0.998929
vt 0.125075 0.874076
vt 0.125075 0.998929
vt 0.000100 0.874076
vt 0.125075 0.749222
vt 0.000100 0.749222
vt 0.125075 0.624368
vt 0.000100 0.624368
vt 0.125075 0.499515
vt 0.000100 0.499515
vt 0.125075 0.374661
vt 0.000100 0.374661
vt 0.125075 0.249807
vt 0.000100 0.249807
vt 0.000000 0.000000
vt 0.000000 0.000000
vt 0.000000 0.000000
vt 0.000000 0.000000
vt 0.000000 0.000000
vt 0.000000 0.000000
vt 0.000000 0.000000
vt 0.000000 0.000000
vt 0.000000 0.000000
vt 0.000000 0.000000
vt 0.000000 0.000000
vt 0.000000 0.000000
vt 0.000000 0.000000
vt 0.000000 0.000000
vt 0.000000 0.000000
vt 0.000000 0.000000
vt 0.000000 0.000000
vt 0.000000 0.000000
vt 0.000000 0.000000
vt 0.000000 0.000000
vt 0.000000 0.000000
vt 0.000000 0.000000
vt 0.000000 0.000000
vt 0.000000 0.000000
vt 0.000000 0.000000
vt 0.000000 0.000000
vt 0.000000 0.000000
vt 0.000000 0.000000
vt 0.000000 0.000000
vt 0.000000 0.000000
vt 0.000000 0.000000
vt 0.000000 0.000000
vt 0.000000 0.000000
vt 0.000000 0.000000
vt 0.000000 0.000000
vt 0.000000 0.000000
vt 0.000000 0.000000
vt 0.000000 0.000000
vt 0.000000 0.000000
vt 0.000000 0.000000
vt 0.000000 0.000000
vt 0.000000 0.000000
vt 0.000000 0.000000
vt 0.000000 0.000000
vt 0.000000 0.000000
vt 0.000000 0.000000
vt 0.000000 0.000000
vt 0.000000 0.000000
vt 0.000000 0.000000
vt 0.000000 0.000000
vt 0.000000 0.000000
vt 0.000000 0.000000
vt 0.000000 0.000000
vt 0.000000 0.000000
vt 0.000000 0.000000
vt 0.000000 0.000000
vt 0.000000 0.000000
vt 0.000000 0.000000
vt 0.000000 0.000000
vt 0.000000 0.000000
vt 0.000000 0.000000
vt 0.000000 0.000000
vt 0.000000 0.000000
vt 0.000000 0.000000
vt 0.000000 0.000000
vt 0.000000 0.000000
vt 0.000000 0.000000
vt 0.000000 0.000000
vt 0.000000 0.000000
vt 0.000000 0.000000
vt 0.000000 0.000000
vt 0.000000 0.000000
vt 0.000000 0.000000
vt 0.000000 0.000000
vt 0.000000 0.000000
vt 0.000000 0.000000
vt 0.000000 0.000000
vt 0.000000 0.000000
vt 0.000000 0.000000
vt 0.000000 0.000000
vt 0.000000 0.000000
vt 0.874925 0.249807
vt 0.999900 0.124954
vt 0.999900 0.249807
vt 0.749950 0.249807
vt 0.874925 0.124954
vt 0.624975 0.249807
vt 0.749950 0.124954
vt 0.500000 0.249807
vt 0.624975 0.124954
vt 0.375025 0.249807
vt 0.500000 0.124954
vt 0.250050 0.249807
vt 0.375025 0.124954
vt 0.250050 0.124954
vt 0.874925 0.374661
vt 0.999900 0.374661
vt 0.749950 0.374661
vt 0.624975 0.374661
vt 0.500000 0.374661
vt 0.375025 0.374661
vt 0.250050 0.374661
vt 0.874925 0.499515
vt 0.999900 0.499515
vt 0.749950 0.499515
vt 0.624975 0.499515
vt 0.500000 0.499515
vt 0.375025 0.499515
vt 0.250050 0.499515
vt 0.874925 0.624368
vt 0.999900 0.624368
vt 0.749950 0.624368
vt 0.624975 0.624368
vt 0.500000 0.624368
vt 0.375025 0.624368
vt 0.250050 0.624368
vt 0.874925 0.749222
vt 0.999900 0.749222
vt 0.749950 0.749222
vt 0.624975 0.749222
vt 0.500000 0.749222
vt 0.375025 0.749222
vt 0.250050 0.749222
vt 0.874925 0.874076
vt 0.999900 0.874076
vt 0.749950 0.874076
vt 0.624975 0.874076
vt 0.500000 0.874076
vt 0.375025 0.874076
vt 0.250050 0.874076
vt 0.874925 0.998929
vt 0.999900 0.998929
vt 0.749950 0.998929
vt 0.624975 0.998929
vt 0.500000 0.998929
vt 0.375025 0.998929
vt 0.250050 0.998929
vt 0.999900 0.000100
vt 0.874925 0.000100
vt 0.749950 0.000100
vt 0.624975 0.000100
vt 0.500000 0.000100
vt 0.375025 0.000100
vt 0.250050 0.000100
vt 0.000000 0.000000
vt 0.000000 0.000000
vt 0.000000 0.000000
vt 0.000000 0.000000
vt 0.000000 0.000000
vt 0.000000 0.000000
vt 0.000000 0.000000
vt 0.000000 0.000000
vt 0.000000 0.000000
vt 0.000000 0.000000
vt 0.000000 0.000000
vt 0.000000 0.000000
vt 0.000000 0.000000
vt 0.000000 0.000000
vt 0.000000 0.000000
vt 0.000000 0.000000
vt 0.000000 0.000000
vt 0.000000 0.000000
vt 0.000100 0.000100
vn -1.0000 0.0000 0.0000
vn 0.0000 0.0000 -1.0000
vn 1.0000 0.0000 0.0000
vn 0.0000 0.0000 1.0000
vn 0.0000 -1.0000 0.0000
vn 0.0000 1.0000 0.0000
usemtl Material.005
s off
f 4/1/1 44/2/1 43/3/1
f 8/4/2 16/5/2 15/6/2
f 6/7/3 58/8/3 57/9/3
f 2/10/4 30/11/4 29/12/4
f 16/5/5 64/13/5 156/14/5
f 9/15/6 43/16/6 107/17/6
f 8/18/6 65/19/6 51/20/6
f 15/21/6 72/22/6 65/19/6
f 14/23/6 79/24/6 72/22/6
f 13/25/6 86/26/6 79/24/6
f 12/27/6 93/28/6 86/26/6
f 11/29/6 100/30/6 93/28/6
f 10/31/6 107/17/6 100/30/6
f 3/32/5 114/33/5 44/2/5
f 22/34/5 121/35/5 114/33/5
f 21/36/5 128/37/5 121/35/5
f 20/38/5 135/39/5 128/37/5
f 19/40/5 142/41/5 135/39/5
f 18/42/5 149/43/5 142/41/5
f 17/44/5 156/14/5 149/43/5
f 23/45/4 5/46/4 6/7/4
f 24/47/4 36/48/4 23/45/4
f 25/49/4 35/50/4 24/47/4
f 26/51/4 34/52/4 25/49/4
f 27/53/4 33/54/4 26/51/4
f 28/55/4 32/56/4 27/53/4
f 29/12/4 31/57/4 28/55/4
f 9/58/2 3/32/2 4/1/2
f 10/59/2 22/34/2 9/58/2
f 11/60/2 21/36/2 10/59/2
f 12/61/2 20/38/2 11/60/2
f 13/62/2 19/40/2 12/61/2
f 14/63/2 18/42/2 13/62/2
f 15/6/2 17/44/2 14/63/2
f 155/64/5 36/48/5 35/50/5
f 154/65/5 162/66/5 155/64/5
f 153/67/5 161/68/5 154/65/5
f 152/69/5 160/70/5 153/67/5
f 151/71/5 159/72/5 152/69/5
f 150/73/5 158/74/5 151/71/5
f 149/43/5 157/75/5 150/73/5
f 148/76/5 35/50/5 34/52/5
f 147/77/5 155/64/5 148/76/5
f 146/78/5 154/65/5 147/77/5
f 145/79/5 153/67/5 146/78/5
f 144/80/5 152/69/5 145/79/5
f 143/81/5 151/71/5 144/80/5
f 142/41/5 150/73/5 143/81/5
f 141/82/5 34/52/5 33/54/5
f 140/83/5 148/76/5 141/82/5
f 139/84/5 147/77/5 140/83/5
f 138/85/5 146/78/5 139/84/5
f 137/86/5 145/79/5 138/85/5
f 136/87/5 144/80/5 137/86/5
f 135/39/5 143/81/5 136/87/5
f 134/88/5 33/54/5 32/56/5
f 133/89/5 141/82/5 134/88/5
f 132/90/5 140/83/5 133/89/5
f 131/91/5 139/84/5 132/90/5
f 130/92/5 138/85/5 131/91/5
f 129/93/5 137/86/5 130/92/5
f 128/37/5 136/87/5 129/93/5
f 127/94/5 32/56/5 31/57/5
f 126/95/5 134/88/5 127/94/5
f 125/96/5 133/89/5 126/95/5
f 124/97/5 132/90/5 125/96/5
f 123/98/5 131/91/5 124/97/5
f 122/99/5 130/92/5 123/98/5
f 121/35/5 129/93/5 122/99/5
f 120/100/5 31/57/5 30/11/5
f 119/101/5 127/94/5 120/100/5
f 118/102/5 126/95/5 119/101/5
f 117/103/5 125/96/5 118/102/5
f 116/104/5 124/97/5 117/103/5
f 115/105/5 123/98/5 116/104/5
f 114/33/5 122/99/5 115/105/5
f 50/106/5 30/11/5 1/107/5
f 49/108/5 120/100/5 50/106/5
f 48/109/5 119/101/5 49/108/5
f 47/110/5 118/102/5 48/109/5
f 46/111/5 117/103/5 47/110/5
f 45/112/5 116/104/5 46/111/5
f 44/2/5 115/105/5 45/112/5
f 106/113/6 29/114/6 28/115/6
f 105/116/6 113/117/6 106/113/6
f 104/118/6 112/119/6 105/116/6
f 103/120/6 111/121/6 104/118/6
f 102/122/6 110/123/6 103/120/6
f 101/124/6 109/125/6 102/122/6
f 100/30/6 108/126/6 101/124/6
f 99/127/6 28/115/6 27/128/6
f 98/129/6 106/113/6 99/127/6
f 97/130/6 105/116/6 98/129/6
f 96/131/6 104/118/6 97/130/6
f 95/132/6 103/120/6 96/131/6
f 94/133/6 102/122/6 95/132/6
f 93/28/6 101/124/6 94/133/6
f 92/134/6 27/128/6 26/135/6
f 91/136/6 99/127/6 92/134/6
f 90/137/6 98/129/6 91/136/6
f 89/138/6 97/130/6 90/137/6
f 88/139/6 96/131/6 89/138/6
f 87/140/6 95/132/6 88/139/6
f 86/26/6 94/133/6 87/140/6
f 85/141/6 26/135/6 25/142/6
f 84/143/6 92/134/6 85/141/6
f 83/144/6 91/136/6 84/143/6
f 82/145/6 90/137/6 83/144/6
f 81/146/6 89/138/6 82/145/6
f 80/147/6 88/139/6 81/146/6
f 79/24/6 87/140/6 80/147/6
f 78/148/6 25/142/6 24/149/6
f 77/150/6 85/141/6 78/148/6
f 76/151/6 84/143/6 77/150/6
f 75/152/6 83/144/6 76/151/6
f 74/153/6 82/145/6 75/152/6
f 73/154/6 81/146/6 74/153/6
f 72/22/6 80/147/6 73/154/6
f 71/155/6 24/149/6 23/156/6
f 70/157/6 78/148/6 71/155/6
f 69/158/6 77/150/6 70/157/6
f 68/159/6 76/151/6 69/158/6
f 67/160/6 75/152/6 68/159/6
f 66/161/6 74/153/6 67/160/6
f 65/19/6 73/154/6 66/161/6
f 57/162/6 23/156/6 6/163/6
f 56/164/6 71/155/6 57/162/6
f 55/165/6 70/157/6 56/164/6
f 54/166/6 69/158/6 55/165/6
f 53/167/6 68/159/6 54/166/6
f 52/168/6 67/160/6 53/167/6
f 51/20/6 66/161/6 52/168/6
f 113/117/6 2/169/6 29/114/6
f 112/119/6 37/170/6 113/117/6
f 111/121/6 38/171/6 112/119/6
f 110/123/6 39/172/6 111/121/6
f 109/125/6 40/173/6 110/123/6
f 108/126/6 41/174/6 109/125/6
f 107/17/6 42/175/6 108/126/6
f 162/66/5 5/46/5 36/48/5
f 161/68/5 58/8/5 162/66/5
f 160/70/5 59/176/5 161/68/5
f 159/72/5 60/177/5 160/70/5
f 158/74/5 61/178/5 159/72/5
f 157/75/5 62/179/5 158/74/5
f 156/14/5 63/180/5 157/75/5
f 51/181/3 7/182/3 8/4/3
f 52/183/3 64/13/3 51/181/3
f 53/184/3 63/180/3 52/183/3
f 54/185/3 62/179/3 53/184/3
f 55/186/3 61/178/3 54/185/3
f 56/187/3 60/177/3 55/186/3
f 57/9/3 59/176/3 56/187/3
f 37/188/1 1/107/1 2/10/1
f 38/189/1 50/106/1 37/188/1
f 39/190/1 49/108/1 38/189/1
f 40/191/1 48/109/1 39/190/1
f 41/192/1 47/110/1 40/191/1
f 42/193/1 46/111/1 41/192/1
f 43/3/1 45/112/1 42/193/1
f 8/4/2 7/182/2 16/5/2
f 6/7/3 5/46/3 58/8/3
f 9/15/6 4/194/6 43/16/6
f 8/18/6 15/21/6 65/19/6
f 15/21/6 14/23/6 72/22/6
f 14/23/6 13/25/6 79/24/6
f 13/25/6 12/27/6 86/26/6
f 12/27/6 11/29/6 93/28/6
f 11/29/6 10/31/6 100/30/6
f 10/31/6 9/15/6 107/17/6
f 9/58/2 22/34/2 3/32/2
f 10/59/2 21/36/2 22/34/2
f 11/60/2 20/38/2 21/36/2
f 12/61/2 19/40/2 20/38/2
f 13/62/2 18/42/2 19/40/2
f 14/63/2 17/44/2 18/42/2
f 15/6/2 16/5/2 17/44/2
f 106/113/6 113/117/6 29/114/6
f 105/116/6 112/119/6 113/117/6
f 104/118/6 111/121/6 112/119/6
f 103/120/6 110/123/6 111/121/6
f 102/122/6 109/125/6 110/123/6
f 101/124/6 108/126/6 109/125/6
f 100/30/6 107/17/6 108/126/6
f 99/127/6 106/113/6 28/115/6
f 98/129/6 105/116/6 106/113/6
f 97/130/6 104/118/6 105/116/6
f 96/131/6 103/120/6 104/118/6
f 95/132/6 102/122/6 103/120/6
f 94/133/6 101/124/6 102/122/6
f 93/28/6 100/30/6 101/124/6
f 92/134/6 99/127/6 27/128/6
f 91/136/6 98/129/6 99/127/6
f 90/137/6 97/130/6 98/129/6
f 89/138/6 96/131/6 97/130/6
f 88/139/6 95/132/6 96/131/6
f 87/140/6 94/133/6 95/132/6
f 86/26/6 93/28/6 94/133/6
f 85/141/6 92/134/6 26/135/6
f 84/143/6 91/136/6 92/134/6
f 83/144/6 90/137/6 91/136/6
f 82/145/6 89/138/6 90/137/6
f 81/146/6 88/139/6 89/138/6
f 80/147/6 87/140/6 88/139/6
f 79/24/6 86/26/6 87/140/6
f 78/148/6 85/141/6 25/142/6
f 77/150/6 84/143/6 85/141/6
f 76/151/6 83/144/6 84/143/6
f 75/152/6 82/145/6 83/144/6
f 74/153/6 81/146/6 82/145/6
f 73/154/6 80/147/6 81/146/6
f 72/22/6 79/24/6 80/147/6
f 71/155/6 78/148/6 24/149/6
f 70/157/6 77/150/6 78/148/6
f 69/158/6 76/151/6 77/150/6
f 68/159/6 75/152/6 76/151/6
f 67/160/6 74/153/6 75/152/6
f 66/161/6 73/154/6 74/153/6
f 65/19/6 72/22/6 73/154/6
f 57/162/6 71/155/6 23/156/6
f 56/164/6 70/157/6 71/155/6
f 55/165/6 69/158/6 70/157/6
f 54/166/6 68/159/6 69/158/6
f 53/167/6 67/160/6 68/159/6
f 52/168/6 66/161/6 67/160/6
f 51/20/6 65/19/6 66/161/6
f 113/117/6 37/170/6 2/169/6
f 112/119/6 38/171/6 37/170/6
f 111/121/6 39/172/6 38/171/6
f 110/123/6 40/173/6 39/172/6
f 109/125/6 41/174/6 40/173/6
f 108/126/6 42/175/6 41/174/6
f 107/17/6 43/16/6 42/175/6
f 51/181/3 64/13/3 7/182/3
f 52/183/3 63/180/3 64/13/3
f 53/184/3 62/179/3 63/180/3
f 54/185/3 61/178/3 62/179/3
f 55/186/3 60/177/3 61/178/3
f 56/187/3 59/176/3 60/177/3
f 57/9/3 58/8/3 59/176/3
f 4/1/1 3/32/1 44/2/1
f 2/10/4 1/107/4 30/11/4
f 16/5/5 7/182/5 64/13/5
f 3/32/5 22/34/5 114/33/5
f 22/34/5 21/36/5 121/35/5
f 21/36/5 20/38/5 128/37/5
f 20/38/5 19/40/5 135/39/5
f 19/40/5 18/42/5 142/41/5
f 18/42/5 17/44/5 149/43/5
f 17/44/5 16/5/5 156/14/5
f 23/45/4 36/48/4 5/46/4
f 24/47/4 35/50/4 36/48/4
f 25/49/4 34/52/4 35/50/4
f 26/51/4 33/54/4 34/52/4
f 27/53/4 32/56/4 33/54/4
f 28/55/4 31/57/4 32/56/4
f 29/12/4 30/11/4 31/57/4
f 155/64/5 162/66/5 36/48/5
f 154/65/5 161/68/5 162/66/5
f 153/67/5 160/70/5 161/68/5
f 152/69/5 159/72/5 160/70/5
f 151/71/5 158/74/5 159/72/5
f 150/73/5 157/75/5 158/74/5
f 149/43/5 156/14/5 157/75/5
f 148/76/5 155/64/5 35/50/5
f 147/77/5 154/65/5 155/64/5
f 146/78/5 153/67/5 154/65/5
f 145/79/5 152/69/5 153/67/5
f 144/80/5 151/71/5 152/69/5
f 143/81/5 150/73/5 151/71/5
f 142/41/5 149/43/5 150/73/5
f 141/82/5 148/76/5 34/52/5
f 140/83/5 147/77/5 148/76/5
f 139/84/5 146/78/5 147/77/5
f 138/85/5 145/79/5 146/78/5
f 137/86/5 144/80/5 145/79/5
f 136/87/5 143/81/5 144/80/5
f 135/39/5 142/41/5 143/81/5
f 134/88/5 141/82/5 33/54/5
f 133/89/5 140/83/5 141/82/5
f 132/90/5 139/84/5 140/83/5
f 131/91/5 138/85/5 139/84/5
f 130/92/5 137/86/5 138/85/5
f 129/93/5 136/87/5 137/86/5
f 128/37/5 135/39/5 136/87/5
f 127/94/5 134/88/5 32/56/5
f 126/95/5 133/89/5 134/88/5
f 125/96/5 132/90/5 133/89/5
f 124/97/5 131/91/5 132/90/5
f 123/98/5 130/92/5 131/91/5
f 122/99/5 129/93/5 130/92/5
f 121/35/5 128/37/5 129/93/5
f 120/100/5 127/94/5 31/57/5
f 119/101/5 126/95/5 127/94/5
f 118/102/5 125/96/5 126/95/5
f 117/103/5 124/97/5 125/96/5
f 116/104/5 123/98/5 124/97/5
f 115/105/5 122/99/5 123/98/5
f 114/33/5 121/35/5 122/99/5
f 50/106/5 120/100/5 30/11/5
f 49/108/5 119/101/5 120/100/5
f 48/109/5 118/102/5 119/101/5
f 47/110/5 117/103/5 118/102/5
f 46/111/5 116/104/5 117/103/5
f 45/112/5 115/105/5 116/104/5
f 44/2/5 114/33/5 115/105/5
f 162/66/5 58/8/5 5/46/5
f 161/68/5 59/176/5 58/8/5
f 160/70/5 60/177/5 59/176/5
f 159/72/5 61/178/5 60/177/5
f 158/74/5 62/179/5 61/178/5
f 157/75/5 63/180/5 62/179/5
f 156/14/5 64/13/5 63/180/5
f 37/188/1 50/106/1 1/107/1
f 38/189/1 49/108/1 50/106/1
f 39/190/1 48/109/1 49/108/1
f 40/191/1 47/110/1 48/109/1
f 41/192/1 46/111/1 47/110/1
f 42/193/1 45/112/1 46/111/1
f 43/3/1 44/2/1 45/112/1
