# Blender v2.93.5 OBJ File: ''
# www.blender.org
mtllib table.mtl
o Cube.001
v -10.000000 -0.399984 -10.000000
v 10.000000 -0.400002 10.000000
v 10.000000 -0.399984 -10.000000
v -10.000000 -1.099988 10.000000
v 10.000000 -1.099988 10.000000
v -10.000000 -0.400002 10.000000
v -10.000000 -1.099970 -10.000000
v 10.000000 -1.099970 -10.000000
vt 0.997600 0.010448
vt 0.003139 0.997761
vt 0.007570 0.004478
vt 0.625000 0.750000
vt 0.375000 1.000000
vt 0.375000 0.750000
vt 0.625000 0.000000
vt 0.375000 0.250000
vt 0.375000 0.000000
vt 0.997096 0.002155
vt 0.003139 0.996269
vt 0.002400 0.005970
vt 0.625000 0.500000
vt 0.375000 0.500000
vt 0.625000 0.250000
vt 0.999077 0.997761
vt 0.625000 1.000000
vt 0.997987 0.994066
vn 0.0000 1.0000 0.0000
vn 0.0000 0.0000 1.0000
vn -1.0000 0.0000 0.0000
vn 0.0000 -1.0000 -0.0000
vn 1.0000 0.0000 0.0000
vn 0.0000 0.0000 -1.0000
usemtl Material.001
s 1
f 1/1/1 2/2/1 3/3/1
f 2/4/2 4/5/2 5/6/2
f 6/7/3 7/8/3 4/9/3
f 8/10/4 4/11/4 7/12/4
f 3/13/5 5/6/5 8/14/5
f 1/15/6 8/14/6 7/8/6
f 1/1/1 6/16/1 2/2/1
f 2/4/2 6/17/2 4/5/2
f 6/7/3 1/15/3 7/8/3
f 8/10/4 5/18/4 4/11/4
f 3/13/5 2/4/5 5/6/5
f 1/15/6 3/13/6 8/14/6
